<svg width="120" height="120" viewBox="0 0 120 120" fill="none" xmlns="http://www.w3.org/2000/svg">
<path d="M40.2693 46.7897C40.2693 61.6156 28.3019 73.6346 13.5394 73.6346C13.2187 73.6346 12.8991 73.6289 12.581 73.6177L12.5779 73.6219C12.4327 73.6166 12.287 73.6141 12.1407 73.6141C5.43557 73.6141 0 79.0731 0 85.807C0 92.5411 5.43557 98 12.1407 98C18.4795 98 23.6836 93.1212 24.2334 86.8985C25.0206 77.1487 33.1488 69.4828 43.0596 69.4828C52.2116 69.4828 59.8433 76.0196 61.5786 84.6979L61.5841 84.697C61.5949 84.7658 61.6062 84.8342 61.6181 84.9026C61.6308 84.9698 61.6432 85.037 61.6551 85.1045C62.7745 90.9553 67.8988 95.3756 74.051 95.3756C81.0224 95.3756 86.674 89.6998 86.674 82.6983C86.674 82.0433 86.6245 81.4 86.5291 80.7719L86.5362 80.7708C86.4192 79.7962 86.359 78.8042 86.359 77.7981C86.359 64.6172 96.6852 53.8585 109.656 53.2363L109.657 53.2355C115.406 53.0171 120 48.2672 120 42.4398C120 36.4731 115.184 31.6361 109.243 31.6361C103.466 31.6361 98.7523 36.2095 98.4963 41.948C98.3179 50.735 91.1695 57.8031 82.3775 57.8031C73.4736 57.8031 66.2555 50.5539 66.2555 41.6115C66.2555 40.4459 66.3781 39.3091 66.611 38.2134L66.6097 38.2135C66.817 37.2458 66.9261 36.2413 66.9261 35.2115C66.9261 27.3627 60.5907 21 52.7756 21C44.9606 21 38.6252 27.3627 38.6252 35.2115C38.6252 36.5461 38.8082 37.8377 39.1508 39.0624L39.1454 39.0626C39.8763 41.5096 40.2693 44.1036 40.2693 46.7897Z" fill="white"/>
</svg>
