<svg width="250" height="250" viewBox="0 0 250 250" fill="none" xmlns="http://www.w3.org/2000/svg">
<g clip-path="url(#clip0_127_62)">
<rect width="250" height="250" fill="white"/>
<path d="M250 0H0V250H250V0Z" fill="#0D1E2D"/>
<path d="M93.8496 105.011C93.8496 128.327 74.9558 147.229 51.6492 147.229C51.1428 147.229 50.6382 147.22 50.136 147.202L50.1311 147.209C49.9019 147.2 49.6719 147.197 49.4409 147.197C38.855 147.197 30.2734 155.781 30.2734 166.372C30.2734 176.962 38.855 185.547 49.4409 185.547C59.4485 185.547 67.6646 177.874 68.5325 168.088C69.7754 152.755 82.6079 140.699 98.2549 140.699C112.704 140.699 124.753 150.979 127.492 164.627L127.501 164.626C127.518 164.734 127.536 164.842 127.555 164.949C127.575 165.055 127.594 165.161 127.613 165.267C129.38 174.468 137.47 181.42 147.183 181.42C158.19 181.42 167.112 172.494 167.112 161.483C167.112 160.453 167.034 159.441 166.884 158.453L166.895 158.451C166.71 156.919 166.615 155.359 166.615 153.776C166.615 133.048 182.918 116.128 203.396 115.149L203.397 115.148C212.474 114.805 219.727 107.335 219.727 98.1704C219.727 88.7869 212.123 81.1799 202.743 81.1799C193.623 81.1799 186.181 88.3723 185.777 97.397C185.495 111.216 174.21 122.331 160.329 122.331C146.272 122.331 134.876 110.931 134.876 96.8677C134.876 95.0347 135.07 93.2468 135.437 91.5237L135.435 91.5239C135.762 90.002 135.935 88.4224 135.935 86.8027C135.935 74.4595 125.933 64.4531 113.594 64.4531C101.256 64.4531 91.2539 74.4595 91.2539 86.8027C91.2539 88.9016 91.543 90.9329 92.0837 92.8589L92.0752 92.8591C93.2293 96.7075 93.8496 100.787 93.8496 105.011Z" fill="#27E6FF"/>
</g>
<defs>
<clipPath id="clip0_127_62">
<rect width="250" height="250" fill="white"/>
</clipPath>
</defs>
</svg>
