<svg width="438" height="77" viewBox="0 0 438 77" fill="none" xmlns="http://www.w3.org/2000/svg">
<path d="M40.4791 25.7901C40.4791 40.6158 28.4494 52.6339 13.61 52.6339C13.2875 52.6339 12.9664 52.6287 12.6466 52.6169L12.6435 52.6221C12.4976 52.6169 12.3511 52.6143 12.2039 52.6143C5.46388 52.6143 0 58.0723 0 64.8065C0 71.5407 5.46388 77 12.2039 77C18.5758 77 23.8071 72.1205 24.3597 65.8981C25.1512 56.1483 33.3216 48.4822 43.2842 48.4822C52.4838 48.4822 60.1551 55.02 61.8995 63.6979L61.9048 63.6966C61.9166 63.7659 61.927 63.834 61.9388 63.902C61.9519 63.9701 61.9651 64.0369 61.9769 64.1036C63.1013 69.9556 68.2533 74.3757 74.4367 74.3757C81.4445 74.3757 87.1259 68.6991 87.1259 61.6979C87.1259 61.0435 87.0761 60.3995 86.9804 59.7712L86.987 59.7699C86.8703 58.7961 86.8087 57.804 86.8087 56.7975C86.8087 43.6171 97.1887 32.8581 110.228 32.2364V32.2351C116.008 32.0165 120.626 27.2666 120.626 21.4394C120.626 15.4736 115.785 10.6359 109.812 10.6359C104.005 10.6359 99.2673 15.2092 99.0104 20.9486C98.8309 29.7351 91.6448 36.803 82.8075 36.803C73.8561 36.803 66.6006 29.5532 66.6006 20.6109C66.6006 19.446 66.7238 18.3086 66.9584 17.2131H66.9571C67.1655 16.2458 67.2756 15.2419 67.2756 14.2118C67.2756 6.36245 60.9061 0 53.0508 0C45.1949 0 38.8265 6.36245 38.8265 14.2118C38.8265 15.5455 39.0106 16.8374 39.3549 18.0625H39.3494C40.0842 20.5101 40.4791 23.103 40.4791 25.7901Z" fill="black"/>
<path d="M162.749 20.6934C165.517 20.6934 167.977 21.0625 170.127 21.7981C172.294 22.535 174.122 23.5781 175.611 24.9315C177.101 26.2836 178.237 27.9053 179.019 29.7992C179.801 31.6919 180.193 33.7952 180.193 36.1093V56.3708H173.038V36.9653C173.038 35.3737 172.821 33.9536 172.384 32.7062C171.948 31.4746 171.294 30.4301 170.421 29.5741C169.564 28.7168 168.488 28.0637 167.194 27.6134C165.915 27.1775 164.433 26.959 162.749 26.959C161.049 26.959 159.559 27.1775 158.28 27.6134C157.002 28.0637 155.926 28.7168 155.053 29.5741C154.196 30.4301 153.548 31.4746 153.112 32.7062C152.675 33.9536 152.458 35.3737 152.458 36.9653V56.3708H145.305V36.1093C145.305 33.7952 145.695 31.6919 146.478 29.7992C147.26 27.9053 148.396 26.2836 149.885 24.9315C151.374 23.5781 153.194 22.535 155.346 21.7981C157.513 21.0625 159.981 20.6934 162.749 20.6934ZM293.595 40.0988C293.595 41.6904 293.814 43.1105 294.25 44.3579C294.687 45.5895 295.333 46.634 296.191 47.49C297.063 48.3473 298.139 49.0005 299.418 49.4507C300.696 49.8866 302.186 50.1052 303.886 50.1052C305.571 50.1052 307.053 49.8866 308.331 49.4507C309.625 49.0005 310.701 48.3473 311.559 47.49C312.431 46.634 313.086 45.5895 313.523 44.3579C313.958 43.1105 314.177 41.6904 314.177 40.0988V20.6934H321.33V40.9548C321.33 43.2689 320.939 45.3723 320.157 47.2649C319.374 49.1588 318.238 50.7805 316.749 52.1326C315.259 53.486 313.432 54.5292 311.266 55.2661C309.114 56.0017 306.654 56.3708 303.886 56.3708C301.118 56.3708 298.65 56.0017 296.483 55.2661C294.333 54.5292 292.512 53.486 291.022 52.1326C289.533 50.7805 288.397 49.1588 287.615 47.2649C286.832 45.3723 286.442 43.2689 286.442 40.9548V20.6934H293.595V40.0988ZM224.23 26.959H200.873V35.3423H224.23V42.0726H200.873V50.1274H224.23V56.3695H193.719V20.6934H224.23V26.959ZM256.599 20.6934C258.901 20.6934 260.902 20.9421 262.602 21.4381C264.317 21.9185 265.739 22.5873 266.868 23.4433C267.996 24.2993 268.831 25.3216 269.372 26.5087C269.929 27.6802 270.207 28.9498 270.207 30.3175C270.207 32.5557 269.5 34.9667 268.085 36.6499C269.711 37.6119 270.922 38.858 271.72 40.3907C272.517 41.9234 272.915 43.6668 272.915 45.6196C272.915 47.257 272.637 48.7374 272.08 50.0593C271.539 51.3813 270.704 52.5161 269.576 53.4624C268.462 54.3943 267.047 55.1155 265.333 55.626C263.633 56.1221 261.624 56.3695 259.307 56.3695H237.756V20.6934H256.599ZM342.011 50.1052H362.524V56.3695H334.858V20.6934H342.011V50.1052ZM417.259 56.3695H409.744L406.841 50.1889H386.406L383.588 56.3695H376.051L392.614 20.6934H400.198L417.259 56.3695ZM438 56.3197H430.786V20.7444H438V56.3197ZM244.91 50.1497H259.488C261.413 50.1497 262.873 49.7361 263.865 48.9102C264.874 48.0843 265.378 46.9194 265.378 45.4168C265.378 43.9142 264.874 42.7427 263.865 41.9011C262.873 41.0595 261.413 40.6394 259.488 40.6394H244.91V50.1497ZM389.178 44.1092H403.987L396.474 28.1082L389.178 44.1092ZM244.91 34.6669H259.353C259.969 34.6669 260.572 34.6892 261.158 34.7337C262.165 33.773 262.67 32.2259 262.67 30.9929C262.67 29.7168 262.165 28.7325 261.158 28.0414C260.165 27.3346 258.705 26.9812 256.78 26.9812H244.91V34.6669Z" fill="black"/>
</svg>
