<svg width="438" height="77" viewBox="0 0 438 77" fill="none" xmlns="http://www.w3.org/2000/svg">
<path d="M40.4787 25.7901C40.4787 40.6158 28.4491 52.6339 13.6099 52.6339C13.2873 52.6339 12.9663 52.6287 12.6465 52.6169L12.6433 52.6221C12.4975 52.6169 12.3509 52.6143 12.2038 52.6143C5.46382 52.6143 0 58.0723 0 64.8065C0 71.5407 5.46382 77 12.2038 77C18.5755 77 23.8069 72.1205 24.3594 65.8981C25.1509 56.1483 33.3212 48.4822 43.2837 48.4822C52.4832 48.4822 60.1545 55.02 61.8988 63.6979L61.9041 63.6966C61.9159 63.7659 61.9263 63.834 61.9381 63.902C61.9513 63.9701 61.9644 64.0369 61.9762 64.1036C63.1006 69.9556 68.2525 74.3757 74.4359 74.3757C81.4435 74.3757 87.1249 68.6991 87.1249 61.6979C87.1249 61.0435 87.0751 60.3995 86.9795 59.7712L86.986 59.7699C86.8694 58.7961 86.8078 57.804 86.8078 56.7975C86.8078 43.6171 97.1876 32.8581 110.227 32.2364V32.2351C116.006 32.0165 120.625 27.2666 120.625 21.4394C120.625 15.4736 115.783 10.6359 109.811 10.6359C104.004 10.6359 99.2662 15.2092 99.0093 20.9486C98.8297 29.7351 91.6438 36.803 82.8066 36.803C73.8553 36.803 66.5999 29.5532 66.5999 20.6109C66.5999 19.446 66.7231 18.3086 66.9577 17.2131H66.9564C67.1648 16.2458 67.2748 15.2419 67.2748 14.2118C67.2748 6.36245 60.9054 0 53.0502 0C45.1944 0 38.826 6.36245 38.826 14.2118C38.826 15.5455 39.0102 16.8374 39.3544 18.0625H39.3489C40.0838 20.5101 40.4787 23.103 40.4787 25.7901Z" fill="#27E6FF"/>
<path d="M162.749 20.6936C165.518 20.6936 167.976 21.0627 170.128 21.7983C172.295 22.5352 174.123 23.5784 175.612 24.9318C177.102 26.2838 178.237 27.9055 179.019 29.7995C179.802 31.6921 180.194 33.7955 180.194 36.1096V56.371H173.039V36.9656C173.039 35.374 172.822 33.9539 172.385 32.7065C171.949 31.4748 171.295 30.4303 170.422 29.5743C169.564 28.717 168.489 28.0639 167.195 27.6136C165.916 27.1778 164.434 26.9592 162.749 26.9592C161.049 26.9592 159.56 27.1778 158.281 27.6136C157.002 28.0639 155.927 28.717 155.054 29.5743C154.197 30.4303 153.55 31.4748 153.113 32.7065C152.677 33.9539 152.459 35.374 152.459 36.9656V56.371H145.305V36.1096C145.305 33.7955 145.697 31.6921 146.479 29.7995C147.261 27.9055 148.396 26.2838 149.886 24.9318C151.375 23.5784 153.196 22.5352 155.348 21.7983C157.514 21.0627 159.981 20.6936 162.749 20.6936ZM293.595 40.099C293.595 41.6906 293.813 43.1108 294.25 44.3581C294.685 45.5898 295.332 46.6343 296.189 47.4903C297.062 48.3476 298.138 49.0007 299.417 49.451C300.695 49.8868 302.185 50.1054 303.885 50.1054C305.571 50.1054 307.052 49.8868 308.331 49.451C309.624 49.0007 310.7 48.3476 311.557 47.4903C312.43 46.6343 313.084 45.5898 313.521 44.3581C313.957 43.1108 314.176 41.6906 314.176 40.099V20.6936H321.329V40.955C321.329 43.2691 320.939 45.3725 320.156 47.2651C319.374 49.1591 318.237 50.7808 316.749 52.1329C315.258 53.4862 313.432 54.5294 311.265 55.2663C309.113 56.0019 306.653 56.371 303.885 56.371C301.117 56.371 298.649 56.0019 296.483 55.2663C294.332 54.5294 292.512 53.4862 291.022 52.1329C289.533 50.7808 288.397 49.1591 287.614 47.2651C286.832 45.3725 286.441 43.2691 286.441 40.955V20.6936H293.595V40.099ZM224.231 26.9592H200.873V35.3426H224.231V42.0728H200.873V50.1277H224.231V56.3697H193.72V20.6936H224.231V26.9592ZM256.599 20.6936C258.901 20.6936 260.902 20.9423 262.602 21.4384C264.317 21.9187 265.738 22.5876 266.867 23.4436C267.995 24.2996 268.83 25.3218 269.372 26.509C269.928 27.6804 270.207 28.95 270.207 30.3178C270.207 32.556 269.499 34.9669 268.085 36.6501C269.71 37.6122 270.921 38.8582 271.718 40.3909C272.516 41.9236 272.915 43.667 272.915 45.6199C272.915 47.2573 272.637 48.7376 272.08 50.0596C271.539 51.3816 270.704 52.5164 269.575 53.4627C268.461 54.3946 267.047 55.1158 265.333 55.6263C263.632 56.1223 261.624 56.3697 259.307 56.3697H237.756V20.6936H256.599ZM342.01 50.1054H362.523V56.3697H334.856V20.6936H342.01V50.1054ZM417.256 56.3697H409.742L406.839 50.1892H386.405L383.587 56.3697H376.05L392.613 20.6936H400.196L417.256 56.3697ZM437.999 56.32H430.784V20.7447H437.999V56.32ZM244.91 50.1499H259.488C261.413 50.1499 262.873 49.7363 263.865 48.9104C264.873 48.0845 265.378 46.9196 265.378 45.417C265.378 43.9144 264.873 42.743 263.865 41.9014C262.873 41.0598 261.413 40.6396 259.488 40.6396H244.91V50.1499ZM389.177 44.1094H403.985L396.471 28.1084L389.177 44.1094ZM244.91 34.6672H259.353C259.969 34.6672 260.57 34.6894 261.158 34.7339C262.165 33.7732 262.67 32.2261 262.67 30.9932C262.67 29.717 262.165 28.7327 261.158 28.0416C260.164 27.3349 258.706 26.9815 256.78 26.9815H244.91V34.6672Z" fill="#27E6FF"/>
</svg>
